<svg width="31" height="28" viewBox="0 0 31 28" fill="none" xmlns="http://www.w3.org/2000/svg">
<path d="M20.303 6.79995C20.303 8.07297 19.7973 9.29386 18.8971 10.194C17.997 11.0942 16.7761 11.5999 15.5031 11.5999C14.23 11.5999 13.0092 11.0942 12.109 10.194C11.2088 9.29386 10.7031 8.07297 10.7031 6.79995C10.7031 5.52692 11.2088 4.30604 12.109 3.40587C13.0092 2.50571 14.23 2 15.5031 2C16.7761 2 17.997 2.50571 18.8971 3.40587C19.7973 4.30604 20.303 5.52692 20.303 6.79995V6.79995Z" fill="#C7C7C7"/>
<path d="M28.3023 10.0007C28.3023 10.8494 27.9651 11.6634 27.365 12.2635C26.7649 12.8636 25.951 13.2007 25.1023 13.2007C24.2536 13.2007 23.4397 12.8636 22.8396 12.2635C22.2395 11.6634 21.9023 10.8494 21.9023 10.0007C21.9023 9.15206 22.2395 8.33814 22.8396 7.73803C23.4397 7.13792 24.2536 6.80078 25.1023 6.80078C25.951 6.80078 26.7649 7.13792 27.365 7.73803C27.9651 8.33814 28.3023 9.15206 28.3023 10.0007V10.0007Z" fill="#C7C7C7"/>
<path d="M21.9014 21.2007C21.9014 19.5033 21.2271 17.8755 20.0269 16.6753C18.8267 15.4751 17.1989 14.8008 15.5015 14.8008C13.8041 14.8008 12.1763 15.4751 10.9761 16.6753C9.77584 17.8755 9.10156 19.5033 9.10156 21.2007V26.0007H21.9014V21.2007Z" fill="#C7C7C7"/>
<path d="M9.10305 10.0007C9.10305 10.8494 8.76592 11.6634 8.16581 12.2635C7.5657 12.8636 6.75177 13.2007 5.90309 13.2007C5.05441 13.2007 4.24048 12.8636 3.64037 12.2635C3.04026 11.6634 2.70313 10.8494 2.70312 10.0007C2.70312 9.15206 3.04026 8.33814 3.64037 7.73803C4.24048 7.13792 5.05441 6.80078 5.90309 6.80078C6.75177 6.80078 7.5657 7.13792 8.16581 7.73803C8.76592 8.33814 9.10305 9.15206 9.10305 10.0007V10.0007Z" fill="#C7C7C7"/>
<path d="M25.1023 25.998V21.1981C25.1046 19.5714 24.6916 17.971 23.9023 16.5485C24.6117 16.367 25.3531 16.3499 26.0701 16.4985C26.7871 16.6471 27.4606 16.9575 28.0394 17.406C28.6182 17.8545 29.0868 18.4293 29.4097 19.0865C29.7325 19.7436 29.901 20.4659 29.9023 21.1981V25.998H25.1023Z" fill="#C7C7C7"/>
<path d="M7.1015 16.5509C6.3123 17.9733 5.89927 19.5737 5.90151 21.2004V26.0003H1.10156V21.2004C1.10125 20.4677 1.2687 19.7446 1.59107 19.0866C1.91344 18.4286 2.38218 17.8531 2.96136 17.4043C3.54053 16.9555 4.21478 16.6452 4.93242 16.4973C5.65005 16.3493 6.39204 16.3677 7.1015 16.5509V16.5509Z" fill="#C7C7C7"/>
</svg>
