<svg width="current" height="current" viewBox="0 0 43 41" fill="none" xmlns="http://www.w3.org/2000/svg">
<path d="M21.4263 40.5171C33.1395 40.5171 42.6502 31.5633 42.6502 20.5C42.6502 9.43658 33.1395 0.482812 21.4263 0.482812C9.71322 0.482812 0.202539 9.43658 0.202539 20.5C0.202539 31.5633 9.71322 40.5171 21.4263 40.5171Z" fill="#D7E3E3" stroke="#D7E3E3" stroke-width="0.3"/>
<mask id="mask0_1078_1242" style="mask-type:alpha" maskUnits="userSpaceOnUse" x="0" y="0" width="43" height="41">
<ellipse cx="21.4254" cy="20.5" rx="21.0738" ry="19.8671" fill="#D7E3E3"/>
</mask>
<g mask="url(#mask0_1078_1242)">
<mask id="mask1_1078_1242" style="mask-type:alpha" maskUnits="userSpaceOnUse" x="0" y="0" width="43" height="41">
<ellipse cx="21.4254" cy="20.5" rx="21.0738" ry="19.8671" fill="#D7E3E3"/>
</mask>
<g mask="url(#mask1_1078_1242)">
<path d="M34.449 42.7339V38.6754C34.449 36.5227 33.7629 34.4582 32.5417 32.936C31.3206 31.4138 29.6643 30.5586 27.9373 30.5586H14.914C13.187 30.5586 11.5307 31.4138 10.3096 32.936C9.08839 34.4582 8.40234 36.5227 8.40234 38.6754V42.7339" fill="white"/>
<path d="M21.4228 24.419C25.0191 24.419 27.9344 21.6705 27.9344 18.2802C27.9344 14.8898 25.0191 12.1414 21.4228 12.1414C17.8265 12.1414 14.9111 14.8898 14.9111 18.2802C14.9111 21.6705 17.8265 24.419 21.4228 24.419Z" fill="white"/>
</g>
</g>
</svg>
