<svg width="9" height="6" viewBox="0 0 9 6" fill="none" xmlns="http://www.w3.org/2000/svg">
<path fill-rule="evenodd" clip-rule="evenodd" d="M1.24471 0.722629C1.0579 0.911521 0.953125 1.16646 0.953125 1.43213C0.953125 1.69779 1.0579 1.95274 1.24471 2.14163L4.18371 5.10663C4.40171 5.32163 4.68371 5.42863 4.96271 5.42863C5.24171 5.42863 5.51871 5.32163 5.73171 5.10663L8.66171 2.15163C8.84827 1.96261 8.95288 1.70771 8.95288 1.44213C8.95288 1.17654 8.84827 0.921647 8.66171 0.732629C8.56987 0.639444 8.46043 0.565446 8.33975 0.514938C8.21906 0.46443 8.08953 0.43842 7.9587 0.43842C7.82788 0.43842 7.69835 0.46443 7.57766 0.514938C7.45698 0.565446 7.34754 0.639444 7.25571 0.732629L4.95771 3.04963L2.65071 0.722629C2.55867 0.629807 2.44916 0.556132 2.3285 0.505853C2.20784 0.455574 2.07842 0.429687 1.94771 0.429688C1.81699 0.429687 1.68757 0.455574 1.56691 0.505853C1.44625 0.556132 1.33674 0.629807 1.24471 0.722629Z" fill="#42526E"/>
</svg>
