<svg width="21" height="21" viewBox="0 0 21 21" fill="none" xmlns="http://www.w3.org/2000/svg">
<path d="M19.956 8.65401C20.079 9.31301 20.146 10.002 20.146 10.721C20.146 16.345 16.382 20.344 10.697 20.344C9.40418 20.3444 8.12393 20.09 6.92943 19.5955C5.73492 19.1009 4.64957 18.3758 3.73539 17.4616C2.82121 16.5475 2.09612 15.4621 1.60155 14.2676C1.10699 13.0731 0.852634 11.7929 0.853028 10.5C0.852634 9.20716 1.10699 7.92691 1.60155 6.7324C2.09612 5.5379 2.82121 4.45255 3.73539 3.53837C4.64957 2.62419 5.73492 1.8991 6.92943 1.40453C8.12393 0.909966 9.40418 0.655612 10.697 0.656006C13.355 0.656006 15.576 1.63401 17.28 3.22201L14.505 5.99701V5.99001C13.472 5.00601 12.161 4.50101 10.697 4.50101C7.44903 4.50101 4.80903 7.24501 4.80903 10.494C4.80903 13.742 7.44903 16.492 10.697 16.492C13.644 16.492 15.65 14.807 16.062 12.493H10.697V8.65401H19.957H19.956Z" fill="white"/>
</svg>
