<svg width="21" height="19" viewBox="0 0 21 19" fill="none" xmlns="http://www.w3.org/2000/svg">
<path d="M14.6397 2.53496C14.914 2.72693 15.1028 3.02301 15.1647 3.35804C15.2265 3.69307 15.1563 4.03962 14.9694 4.32145C14.7826 4.60329 14.4944 4.79731 14.1683 4.86084C13.8422 4.92438 13.5049 4.85222 13.2306 4.66024C12.0753 3.85331 10.6904 3.46683 9.29645 3.56236C7.90255 3.6579 6.57986 4.22996 5.53909 5.18741C4.49833 6.14485 3.79937 7.43261 3.55356 8.84553C3.30774 10.2584 3.52923 11.7152 4.18271 12.9838C4.8362 14.2524 5.88411 15.2598 7.15949 15.8456C8.43487 16.4313 9.86435 16.5617 11.2202 16.2159C12.5761 15.8702 13.7803 15.0682 14.6411 13.9377C15.5019 12.8072 15.9696 11.4133 15.9699 9.97795C15.9699 9.63696 16.1018 9.30993 16.3364 9.06881C16.5711 8.8277 16.8894 8.69224 17.2213 8.69224C17.5532 8.69224 17.8715 8.8277 18.1062 9.06881C18.3409 9.30993 18.4727 9.63696 18.4727 9.97795C18.4724 11.9875 17.8175 13.9392 16.6124 15.5219C15.4072 17.1047 13.7212 18.2276 11.8228 18.7116C9.92448 19.1956 7.92308 19.013 6.1375 18.1927C4.35192 17.3725 2.8849 15.9619 1.97015 14.1857C1.05541 12.4094 0.745591 10.3697 1.09005 8.39157C1.43451 6.41343 2.41343 4.61063 3.87084 3.27041C5.32825 1.9302 7.18031 1.12967 9.13193 0.996388C11.0835 0.863103 13.0224 1.40472 14.6397 2.53496Z" fill="#8A8A8A"/>
<path d="M14.141 13.1987C14.0025 13.2897 13.848 13.3518 13.6861 13.3815C13.5243 13.4111 13.3584 13.4077 13.1979 13.3715C13.0374 13.3352 12.8853 13.2669 12.7505 13.1703C12.6157 13.0737 12.5007 12.9507 12.4121 12.8085C12.3236 12.6662 12.2631 12.5075 12.2343 12.3412C12.2054 12.175 12.2087 12.0045 12.244 11.8396C12.2793 11.6746 12.3458 11.5185 12.4398 11.3799C12.5338 11.2414 12.6535 11.1233 12.7919 11.0323L17.1493 8.169C17.4289 7.99125 17.7652 7.93366 18.0858 8.00867C18.4063 8.08368 18.6852 8.28526 18.8623 8.56985C19.0393 8.85444 19.1003 9.19917 19.0319 9.52955C18.9636 9.85992 18.7715 10.1494 18.4971 10.3354L14.141 13.1987Z" fill="#8A8A8A"/>
<path d="M20.8534 13.0755C20.9812 13.3856 20.9854 13.7347 20.8653 14.048C20.7452 14.3612 20.5103 14.6136 20.211 14.7508C19.9118 14.888 19.5721 14.8992 19.265 14.7819C18.9578 14.6646 18.7077 14.4281 18.5684 14.1234L16.6812 9.77768C16.6105 9.62297 16.5705 9.45531 16.5636 9.28452C16.5567 9.11373 16.583 8.94324 16.6409 8.78302C16.6989 8.62279 16.7874 8.47605 16.9012 8.35139C17.015 8.22672 17.1519 8.12662 17.3039 8.05695C17.4558 7.98728 17.6197 7.94944 17.786 7.94563C17.9524 7.94183 18.1178 7.97214 18.2726 8.03479C18.4274 8.09745 18.5685 8.19118 18.6876 8.31053C18.8067 8.42987 18.9014 8.57241 18.9663 8.72983L20.8534 13.0755Z" fill="#8A8A8A"/>
</svg>
