<svg width="19" height="19" viewBox="0 0 19 19" fill="none" xmlns="http://www.w3.org/2000/svg">
<path d="M18.21 16.7871L14.81 13.3971C15.907 11.9995 16.5022 10.2737 16.5 8.49707C16.5 6.91482 16.0308 5.3681 15.1518 4.05251C14.2727 2.73692 13.0233 1.71154 11.5615 1.10604C10.0997 0.500537 8.49113 0.34211 6.93928 0.650792C5.38743 0.959473 3.96197 1.7214 2.84315 2.84022C1.72433 3.95904 0.962403 5.3845 0.653721 6.93635C0.34504 8.4882 0.503466 10.0967 1.10897 11.5585C1.71447 13.0204 2.73985 14.2698 4.05544 15.1488C5.37103 16.0279 6.91775 16.4971 8.5 16.4971C10.2767 16.4993 12.0025 15.9041 13.4 14.8071L16.79 18.2071C16.883 18.3008 16.9936 18.3752 17.1154 18.426C17.2373 18.4767 17.368 18.5029 17.5 18.5029C17.632 18.5029 17.7627 18.4767 17.8846 18.426C18.0064 18.3752 18.117 18.3008 18.21 18.2071C18.3037 18.1141 18.3781 18.0035 18.4289 17.8817C18.4797 17.7598 18.5058 17.6291 18.5058 17.4971C18.5058 17.3651 18.4797 17.2344 18.4289 17.1125C18.3781 16.9906 18.3037 16.88 18.21 16.7871ZM2.5 8.49707C2.5 7.31039 2.8519 6.15035 3.51119 5.16365C4.17047 4.17696 5.10755 3.40792 6.2039 2.9538C7.30026 2.49967 8.50666 2.38085 9.67055 2.61236C10.8344 2.84387 11.9035 3.41532 12.7426 4.25443C13.5818 5.09355 14.1532 6.16265 14.3847 7.32653C14.6162 8.49042 14.4974 9.69682 14.0433 10.7932C13.5892 11.8895 12.8201 12.8266 11.8334 13.4859C10.8467 14.1452 9.68669 14.4971 8.5 14.4971C6.9087 14.4971 5.38258 13.8649 4.25736 12.7397C3.13214 11.6145 2.5 10.0884 2.5 8.49707Z" fill="#A6AAB5"/>
</svg>
