<svg width="18" height="19" viewBox="0 0 18 19" fill="none" xmlns="http://www.w3.org/2000/svg">
<path d="M11.0469 15.6016C11.0469 16.0491 10.879 16.4783 10.5801 16.7948C10.2812 17.1113 9.87581 17.2891 9.45312 17.2891C9.03044 17.2891 8.62506 17.1113 8.32617 16.7948C8.02729 16.4783 7.85938 16.0491 7.85938 15.6016C7.85938 15.154 8.02729 14.7248 8.32617 14.4083C8.62506 14.0919 9.03044 13.9141 9.45312 13.9141C9.87581 13.9141 10.2812 14.0919 10.5801 14.4083C10.879 14.7248 11.0469 15.154 11.0469 15.6016ZM11.0469 9.97656C11.0469 10.4241 10.879 10.8533 10.5801 11.1698C10.2812 11.4863 9.87581 11.6641 9.45312 11.6641C9.03044 11.6641 8.62506 11.4863 8.32617 11.1698C8.02729 10.8533 7.85938 10.4241 7.85938 9.97656C7.85938 9.52901 8.02729 9.09979 8.32617 8.78332C8.62506 8.46685 9.03044 8.28906 9.45312 8.28906C9.87581 8.28906 10.2812 8.46685 10.5801 8.78332C10.879 9.09979 11.0469 9.52901 11.0469 9.97656ZM11.0469 4.35156C11.0469 4.79912 10.879 5.22834 10.5801 5.54481C10.2812 5.86127 9.87581 6.03906 9.45312 6.03906C9.03044 6.03906 8.62506 5.86127 8.32617 5.54481C8.02729 5.22834 7.85938 4.79912 7.85938 4.35156C7.85938 3.90401 8.02729 3.47479 8.32617 3.15832C8.62506 2.84185 9.03044 2.66406 9.45312 2.66406C9.87581 2.66406 10.2812 2.84185 10.5801 3.15832C10.879 3.47479 11.0469 3.90401 11.0469 4.35156Z" fill="#8A8A8A"/>
</svg>
