<svg width="632" height="213" viewBox="0 0 632 213" fill="none" xmlns="http://www.w3.org/2000/svg">
<path d="M35.1 30H0.6V-1.43051e-05H102.6V30H68.1V210H35.1V30ZM116.527 35H144.027V210H116.527V35ZM203.373 212.5C190.206 212.5 180.123 208.75 173.123 201.25C166.29 193.75 162.873 183.167 162.873 169.5V75.5C162.873 61.8333 166.29 51.25 173.123 43.75C180.123 36.25 190.206 32.5 203.373 32.5C216.54 32.5 226.54 36.25 233.373 43.75C240.373 51.25 243.873 61.8333 243.873 75.5V94H217.873V73.75C217.873 62.9167 213.29 57.5 204.123 57.5C194.956 57.5 190.373 62.9167 190.373 73.75V171.5C190.373 182.167 194.956 187.5 204.123 187.5C213.29 187.5 217.873 182.167 217.873 171.5V144.75H243.873V169.5C243.873 183.167 240.373 193.75 233.373 201.25C226.54 208.75 216.54 212.5 203.373 212.5ZM260.326 35H287.826V108.75L322.826 35H350.326L317.576 99.25L350.826 210H322.076L298.826 132L287.826 154.25V210H260.326V35ZM357.192 -1.43051e-05H390.492L412.092 162.9H412.692L434.292 -1.43051e-05H464.592L432.792 210H388.992L357.192 -1.43051e-05ZM480.443 -1.43051e-05H513.443V210H480.443V-1.43051e-05ZM563.957 30H529.457V-1.43051e-05H631.457V30H596.957V210H563.957V30Z" fill="url(#paint0_linear_1339_2334)"/>
<defs>
<linearGradient id="paint0_linear_1339_2334" x1="43.6962" y1="12.4143" x2="598.074" y2="113.385" gradientUnits="userSpaceOnUse">
<stop stop-color="#EE5622"/>
<stop offset="1" stop-color="#ECA72C"/>
</linearGradient>
</defs>
</svg>
