<svg width="current" height="current" layout="intrinsic" viewBox="0 0 41 40" fill="none" xmlns="http://www.w3.org/2000/svg">
<path d="M29.0977 11.4063C28.4477 10.7561 28.0672 9.8846 28.0322 8.96598C27.9971 8.04736 28.3101 7.14936 28.9086 6.45158C28.9581 6.39355 28.9838 6.31895 28.9807 6.24274C28.9775 6.16653 28.9456 6.09434 28.8914 6.04065L25.4438 2.58908C25.3868 2.53212 25.3095 2.50012 25.2289 2.50012C25.1483 2.50012 25.0711 2.53212 25.0141 2.58908L19.5188 8.0844C19.316 8.2871 19.1633 8.53426 19.0727 8.80627V8.80627C18.9824 9.07891 18.8299 9.32677 18.6271 9.53018C18.4244 9.7336 18.177 9.88698 17.9047 9.97815V9.97815C17.6325 10.0688 17.3851 10.2216 17.1821 10.4242L3.08908 24.5141C3.03212 24.5711 3.00012 24.6484 3.00012 24.7289C3.00012 24.8095 3.03212 24.8868 3.08908 24.9438L6.53674 28.3914C6.59044 28.4456 6.66263 28.4775 6.73884 28.4807C6.81505 28.4839 6.88964 28.4581 6.94768 28.4086C7.64531 27.8095 8.5435 27.4959 9.46244 27.5308C10.3814 27.5656 11.2532 27.9463 11.9035 28.5965C12.5538 29.2468 12.9344 30.1187 12.9693 31.0376C13.0041 31.9565 12.6906 32.8547 12.0914 33.5524C12.0419 33.6104 12.0162 33.685 12.0194 33.7612C12.0226 33.8374 12.0544 33.9096 12.1086 33.9633L15.5563 37.411C15.6133 37.4679 15.6905 37.4999 15.7711 37.4999C15.8517 37.4999 15.929 37.4679 15.986 37.411L30.0797 23.318C30.2824 23.1149 30.4351 22.8675 30.5258 22.5953V22.5953C30.6161 22.3227 30.7686 22.0748 30.9713 21.8714C31.1741 21.668 31.4214 21.5146 31.6938 21.4235V21.4235C31.9658 21.3329 32.2129 21.1801 32.4156 20.9774L37.911 15.4821C37.9679 15.4251 37.9999 15.3478 37.9999 15.2672C37.9999 15.1866 37.9679 15.1094 37.911 15.0524L34.4633 11.6047C34.4096 11.5505 34.3374 11.5187 34.2612 11.5155C34.185 11.5123 34.1104 11.538 34.0524 11.5875C33.3555 12.187 32.4581 12.5014 31.5395 12.4678C30.6209 12.4342 29.7488 12.0551 29.0977 11.4063V11.4063Z" stroke="current" stroke-width="2.13" stroke-miterlimit="10"/>
<path d="M20.0703 10.9719L18.7805 9.68201" stroke="current" stroke-width="2.13" stroke-miterlimit="10" stroke-linecap="round"/>
<path d="M23.5094 14.4109L22.6492 13.5515" stroke="current" stroke-width="2.13" stroke-miterlimit="10" stroke-linecap="round"/>
<path d="M26.9484 17.8508L26.0891 16.9906" stroke="current" stroke-width="2.13" stroke-miterlimit="10" stroke-linecap="round"/>
<path d="M30.818 21.7195L29.5281 20.4297" stroke="current" stroke-width="2.13" stroke-miterlimit="10" stroke-linecap="round"/>
</svg>
